<svg width="15" height="14" viewBox="0 0 15 14" fill="none" xmlns="http://www.w3.org/2000/svg">
<g clip-path="url(#clip0_1_4627)">
<path d="M8.26335 1.80802C8.03648 1.58063 7.72877 1.45284 7.40789 1.45277H3.0689C2.74799 1.45277 2.44023 1.58051 2.21331 1.80789C1.9864 2.03526 1.85892 2.34365 1.85892 2.66521V7.013C1.85898 7.33453 1.98651 7.64287 2.21344 7.87019L7.05337 12.7199C7.28027 12.9472 7.58798 13.0749 7.90882 13.0749C8.22967 13.0749 8.53737 12.9472 8.76428 12.7199L13.1033 8.37214C13.3301 8.14478 13.4575 7.83644 13.4575 7.51495C13.4575 7.19346 13.3301 6.88512 13.1033 6.65776L8.26335 1.80802ZM4.88387 5.6963C4.56288 5.69622 4.25507 5.56837 4.02816 5.34088C3.80124 5.11339 3.67381 4.80489 3.67389 4.48326C3.67397 4.16162 3.80156 3.85318 4.02859 3.62581C4.25561 3.39843 4.56349 3.27074 4.88447 3.27082C5.20546 3.2709 5.51327 3.39875 5.74018 3.62624C5.9671 3.85373 6.09454 4.16222 6.09446 4.48386C6.09438 4.8055 5.96679 5.11393 5.73976 5.34131C5.51273 5.56868 5.20486 5.69638 4.88387 5.6963Z" fill="#7662B3"/>
</g>
<defs>
<clipPath id="clip0_1_4627">
<rect width="13.7734" height="13.8013" fill="white" transform="translate(0.409088)"/>
</clipPath>
</defs>
</svg>
